<mxfile host="app.diagrams.net" agent="Mozilla/5.0 (Macintosh; Intel Mac OS X 10_15_7) AppleWebKit/605.1.15 (KHTML, like Gecko) Version/17.6 Safari/605.1.15" version="26.0.11">
  <diagram name="Page-1" id="ffvrd7MuEuTcJ5k-gqU2">
    <mxGraphModel dx="783" dy="5080" grid="1" gridSize="10" guides="1" tooltips="1" connect="1" arrows="1" fold="1" page="1" pageScale="1" pageWidth="850" pageHeight="1100" math="0" shadow="0">
      <root>
        <mxCell id="0" />
        <mxCell id="1" parent="0" />
        <mxCell id="ANNRg-rFrCsw3sl3Zg_w-22" value="Patient Registry Form" style="swimlane;whiteSpace=wrap;html=1;startSize=23;" vertex="1" parent="1">
          <mxGeometry x="20" y="-3890" width="680" height="720" as="geometry" />
        </mxCell>
        <mxCell id="ANNRg-rFrCsw3sl3Zg_w-23" value="&lt;div&gt;&lt;br&gt;&lt;/div&gt;First Name:&lt;div&gt;&lt;br&gt;&lt;div&gt;DOB:&lt;/div&gt;&lt;div&gt;&lt;br&gt;&lt;/div&gt;&lt;div&gt;Address Line 1:&lt;/div&gt;&lt;div&gt;&lt;br&gt;&lt;/div&gt;&lt;div&gt;Address Line 2:&lt;/div&gt;&lt;div&gt;&lt;br&gt;&lt;/div&gt;&lt;div&gt;City:&lt;/div&gt;&lt;div&gt;&lt;br&gt;&lt;/div&gt;&lt;div&gt;Email Address:&lt;/div&gt;&lt;div&gt;&lt;br&gt;&lt;/div&gt;&lt;div&gt;&lt;br&gt;&lt;/div&gt;&lt;/div&gt;" style="text;html=1;align=center;verticalAlign=middle;whiteSpace=wrap;rounded=0;" vertex="1" parent="ANNRg-rFrCsw3sl3Zg_w-22">
          <mxGeometry x="-20" y="40" width="240" height="220" as="geometry" />
        </mxCell>
        <mxCell id="ANNRg-rFrCsw3sl3Zg_w-27" value="&amp;nbsp; &amp;nbsp;M: &amp;nbsp; &amp;nbsp; &amp;nbsp; &amp;nbsp; &amp;nbsp; &amp;nbsp;Last Name:" style="text;html=1;align=center;verticalAlign=middle;whiteSpace=wrap;rounded=0;" vertex="1" parent="ANNRg-rFrCsw3sl3Zg_w-22">
          <mxGeometry x="150" y="70" width="150" height="10" as="geometry" />
        </mxCell>
        <mxCell id="ANNRg-rFrCsw3sl3Zg_w-28" value="Symptoms:" style="text;html=1;align=center;verticalAlign=middle;whiteSpace=wrap;rounded=0;" vertex="1" parent="ANNRg-rFrCsw3sl3Zg_w-22">
          <mxGeometry x="65" y="260" width="60" height="30" as="geometry" />
        </mxCell>
        <mxCell id="ANNRg-rFrCsw3sl3Zg_w-32" style="edgeStyle=orthogonalEdgeStyle;rounded=0;orthogonalLoop=1;jettySize=auto;html=1;exitX=0.5;exitY=1;exitDx=0;exitDy=0;" edge="1" parent="ANNRg-rFrCsw3sl3Zg_w-22" source="ANNRg-rFrCsw3sl3Zg_w-30">
          <mxGeometry relative="1" as="geometry">
            <mxPoint x="250" y="320" as="targetPoint" />
          </mxGeometry>
        </mxCell>
        <mxCell id="ANNRg-rFrCsw3sl3Zg_w-30" value="" style="rounded=1;whiteSpace=wrap;html=1;" vertex="1" parent="ANNRg-rFrCsw3sl3Zg_w-22">
          <mxGeometry x="140" y="240" width="220" height="90" as="geometry" />
        </mxCell>
        <mxCell id="ANNRg-rFrCsw3sl3Zg_w-31" value="Medical History:&amp;nbsp;" style="text;html=1;align=center;verticalAlign=middle;whiteSpace=wrap;rounded=0;" vertex="1" parent="ANNRg-rFrCsw3sl3Zg_w-22">
          <mxGeometry x="50" y="340" width="100" height="30" as="geometry" />
        </mxCell>
        <mxCell id="ANNRg-rFrCsw3sl3Zg_w-33" value="Social Security:" style="text;html=1;align=center;verticalAlign=middle;whiteSpace=wrap;rounded=0;" vertex="1" parent="ANNRg-rFrCsw3sl3Zg_w-22">
          <mxGeometry x="150" y="90" width="100" height="30" as="geometry" />
        </mxCell>
        <mxCell id="ANNRg-rFrCsw3sl3Zg_w-34" value="&amp;nbsp; &amp;nbsp;State: &amp;nbsp; &amp;nbsp; &amp;nbsp; &amp;nbsp;Zip Code:" style="text;html=1;align=center;verticalAlign=middle;whiteSpace=wrap;rounded=0;" vertex="1" parent="ANNRg-rFrCsw3sl3Zg_w-22">
          <mxGeometry x="130" y="170" width="140" height="30" as="geometry" />
        </mxCell>
        <mxCell id="ANNRg-rFrCsw3sl3Zg_w-35" value="Phone Number:" style="text;html=1;align=center;verticalAlign=middle;whiteSpace=wrap;rounded=0;" vertex="1" parent="ANNRg-rFrCsw3sl3Zg_w-22">
          <mxGeometry x="205" y="200" width="90" height="30" as="geometry" />
        </mxCell>
        <mxCell id="ANNRg-rFrCsw3sl3Zg_w-39" value="Covid 19" style="text;html=1;align=center;verticalAlign=middle;whiteSpace=wrap;rounded=0;" vertex="1" parent="ANNRg-rFrCsw3sl3Zg_w-22">
          <mxGeometry x="70" y="370" width="60" height="30" as="geometry" />
        </mxCell>
        <mxCell id="ANNRg-rFrCsw3sl3Zg_w-38" value="Chicken Pox" style="text;html=1;align=center;verticalAlign=middle;whiteSpace=wrap;rounded=0;" vertex="1" parent="ANNRg-rFrCsw3sl3Zg_w-22">
          <mxGeometry x="160" y="370" width="50" height="40" as="geometry" />
        </mxCell>
        <mxCell id="ANNRg-rFrCsw3sl3Zg_w-40" value="Not sure" style="text;html=1;align=center;verticalAlign=middle;whiteSpace=wrap;rounded=0;" vertex="1" parent="ANNRg-rFrCsw3sl3Zg_w-22">
          <mxGeometry x="235" y="360" width="60" height="50" as="geometry" />
        </mxCell>
        <mxCell id="ANNRg-rFrCsw3sl3Zg_w-49" value="" style="html=1;shadow=0;dashed=0;shape=mxgraph.bootstrap.checkbox2;labelPosition=right;verticalLabelPosition=middle;align=left;verticalAlign=middle;gradientColor=#DEDEDE;fillColor=#EDEDED;checked=0;spacing=5;checkedFill=#0085FC;checkedStroke=#ffffff;sketch=0;" vertex="1" parent="ANNRg-rFrCsw3sl3Zg_w-22">
          <mxGeometry x="60" y="380" width="10" height="10" as="geometry" />
        </mxCell>
        <mxCell id="ANNRg-rFrCsw3sl3Zg_w-51" value="" style="html=1;shadow=0;dashed=0;shape=mxgraph.bootstrap.checkbox2;labelPosition=right;verticalLabelPosition=middle;align=left;verticalAlign=middle;gradientColor=#DEDEDE;fillColor=#EDEDED;checked=0;spacing=5;checkedFill=#0085FC;checkedStroke=#ffffff;sketch=0;" vertex="1" parent="ANNRg-rFrCsw3sl3Zg_w-22">
          <mxGeometry x="150" y="380" width="10" height="10" as="geometry" />
        </mxCell>
        <mxCell id="ANNRg-rFrCsw3sl3Zg_w-52" value="" style="html=1;shadow=0;dashed=0;shape=mxgraph.bootstrap.checkbox2;labelPosition=right;verticalLabelPosition=middle;align=left;verticalAlign=middle;gradientColor=#DEDEDE;fillColor=#EDEDED;checked=0;spacing=5;checkedFill=#0085FC;checkedStroke=#ffffff;sketch=0;" vertex="1" parent="ANNRg-rFrCsw3sl3Zg_w-22">
          <mxGeometry x="225" y="380" width="10" height="10" as="geometry" />
        </mxCell>
        <mxCell id="ANNRg-rFrCsw3sl3Zg_w-53" value="Gender:" style="text;html=1;align=center;verticalAlign=middle;whiteSpace=wrap;rounded=0;" vertex="1" parent="ANNRg-rFrCsw3sl3Zg_w-22">
          <mxGeometry x="50" y="420" width="60" height="30" as="geometry" />
        </mxCell>
        <mxCell id="ANNRg-rFrCsw3sl3Zg_w-54" value="M" style="text;html=1;align=center;verticalAlign=middle;whiteSpace=wrap;rounded=0;" vertex="1" parent="ANNRg-rFrCsw3sl3Zg_w-22">
          <mxGeometry x="120" y="420" width="60" height="30" as="geometry" />
        </mxCell>
        <mxCell id="ANNRg-rFrCsw3sl3Zg_w-55" value="F" style="text;html=1;align=center;verticalAlign=middle;whiteSpace=wrap;rounded=0;" vertex="1" parent="ANNRg-rFrCsw3sl3Zg_w-22">
          <mxGeometry x="190" y="420" width="60" height="30" as="geometry" />
        </mxCell>
        <mxCell id="ANNRg-rFrCsw3sl3Zg_w-58" value="" style="html=1;shadow=0;dashed=0;shape=mxgraph.bootstrap.checkbox2;labelPosition=right;verticalLabelPosition=middle;align=left;verticalAlign=middle;gradientColor=#DEDEDE;fillColor=#EDEDED;checked=0;spacing=5;checkedFill=#0085FC;checkedStroke=#ffffff;sketch=0;" vertex="1" parent="ANNRg-rFrCsw3sl3Zg_w-22">
          <mxGeometry x="195" y="430" width="10" height="10" as="geometry" />
        </mxCell>
        <mxCell id="ANNRg-rFrCsw3sl3Zg_w-57" value="" style="html=1;shadow=0;dashed=0;shape=mxgraph.bootstrap.checkbox2;labelPosition=right;verticalLabelPosition=middle;align=left;verticalAlign=middle;gradientColor=#DEDEDE;fillColor=#EDEDED;checked=0;spacing=5;checkedFill=#0085FC;checkedStroke=#ffffff;sketch=0;" vertex="1" parent="ANNRg-rFrCsw3sl3Zg_w-22">
          <mxGeometry x="120" y="430" width="10" height="10" as="geometry" />
        </mxCell>
        <mxCell id="ANNRg-rFrCsw3sl3Zg_w-60" value="Vaccinated:" style="text;html=1;align=center;verticalAlign=middle;whiteSpace=wrap;rounded=0;" vertex="1" parent="ANNRg-rFrCsw3sl3Zg_w-22">
          <mxGeometry x="50" y="460" width="60" height="30" as="geometry" />
        </mxCell>
        <mxCell id="ANNRg-rFrCsw3sl3Zg_w-109" value="Yes" style="text;html=1;align=center;verticalAlign=middle;whiteSpace=wrap;rounded=0;" vertex="1" parent="ANNRg-rFrCsw3sl3Zg_w-22">
          <mxGeometry x="125" y="465" width="50" height="20" as="geometry" />
        </mxCell>
        <mxCell id="ANNRg-rFrCsw3sl3Zg_w-110" value="No" style="text;html=1;align=center;verticalAlign=middle;whiteSpace=wrap;rounded=0;" vertex="1" parent="ANNRg-rFrCsw3sl3Zg_w-22">
          <mxGeometry x="200" y="465" width="50" height="20" as="geometry" />
        </mxCell>
        <mxCell id="ANNRg-rFrCsw3sl3Zg_w-111" value="" style="html=1;shadow=0;dashed=0;shape=mxgraph.bootstrap.checkbox2;labelPosition=right;verticalLabelPosition=middle;align=left;verticalAlign=middle;gradientColor=#DEDEDE;fillColor=#EDEDED;checked=0;spacing=5;checkedFill=#0085FC;checkedStroke=#ffffff;sketch=0;" vertex="1" parent="ANNRg-rFrCsw3sl3Zg_w-22">
          <mxGeometry x="120" y="470" width="10" height="10" as="geometry" />
        </mxCell>
        <mxCell id="ANNRg-rFrCsw3sl3Zg_w-112" value="" style="html=1;shadow=0;dashed=0;shape=mxgraph.bootstrap.checkbox2;labelPosition=right;verticalLabelPosition=middle;align=left;verticalAlign=middle;gradientColor=#DEDEDE;fillColor=#EDEDED;checked=0;spacing=5;checkedFill=#0085FC;checkedStroke=#ffffff;sketch=0;" vertex="1" parent="ANNRg-rFrCsw3sl3Zg_w-22">
          <mxGeometry x="195" y="470" width="10" height="10" as="geometry" />
        </mxCell>
        <mxCell id="ANNRg-rFrCsw3sl3Zg_w-114" value="Health Scale" style="text;html=1;align=center;verticalAlign=middle;whiteSpace=wrap;rounded=0;" vertex="1" parent="ANNRg-rFrCsw3sl3Zg_w-22">
          <mxGeometry x="45" y="500" width="80" height="30" as="geometry" />
        </mxCell>
        <mxCell id="ANNRg-rFrCsw3sl3Zg_w-115" value="" style="dashed=0;verticalLabelPosition=bottom;verticalAlign=top;align=center;shape=mxgraph.gmdl.slider2;barPos=100;strokeColor=#3F51B5;opacity=100;strokeWidth=2;fillColor=#3F51B5;handleSize=10;shadow=0;html=1;" vertex="1" parent="ANNRg-rFrCsw3sl3Zg_w-22">
          <mxGeometry x="140" y="510" width="200" height="10" as="geometry" />
        </mxCell>
        <mxCell id="ANNRg-rFrCsw3sl3Zg_w-116" value="10" style="text;html=1;align=center;verticalAlign=middle;whiteSpace=wrap;rounded=0;" vertex="1" parent="ANNRg-rFrCsw3sl3Zg_w-22">
          <mxGeometry x="320" y="490" width="40" height="10" as="geometry" />
        </mxCell>
        <mxCell id="ANNRg-rFrCsw3sl3Zg_w-119" value="User ID:&lt;div&gt;&lt;br&gt;&lt;/div&gt;&lt;div&gt;Password:&lt;/div&gt;" style="text;html=1;align=center;verticalAlign=middle;whiteSpace=wrap;rounded=0;" vertex="1" parent="ANNRg-rFrCsw3sl3Zg_w-22">
          <mxGeometry x="45" y="550" width="65" height="30" as="geometry" />
        </mxCell>
        <mxCell id="ANNRg-rFrCsw3sl3Zg_w-121" value="Re-enter password&amp;nbsp;" style="text;html=1;align=center;verticalAlign=middle;whiteSpace=wrap;rounded=0;" vertex="1" parent="ANNRg-rFrCsw3sl3Zg_w-22">
          <mxGeometry x="180" y="560" width="110" height="30" as="geometry" />
        </mxCell>
        <mxCell id="ANNRg-rFrCsw3sl3Zg_w-123" value="Submit" style="rounded=1;whiteSpace=wrap;html=1;" vertex="1" parent="ANNRg-rFrCsw3sl3Zg_w-22">
          <mxGeometry x="250" y="640" width="120" height="50" as="geometry" />
        </mxCell>
        <mxCell id="ANNRg-rFrCsw3sl3Zg_w-124" value="Reset Form" style="rounded=1;whiteSpace=wrap;html=1;" vertex="1" parent="ANNRg-rFrCsw3sl3Zg_w-22">
          <mxGeometry x="55" y="640" width="120" height="55" as="geometry" />
        </mxCell>
        <mxCell id="ANNRg-rFrCsw3sl3Zg_w-125" value="" style="curved=1;endArrow=classic;html=1;rounded=0;" edge="1" parent="1" source="ANNRg-rFrCsw3sl3Zg_w-130" target="ANNRg-rFrCsw3sl3Zg_w-126">
          <mxGeometry width="50" height="50" relative="1" as="geometry">
            <mxPoint x="140" y="-3920" as="sourcePoint" />
            <mxPoint x="80" y="-4000" as="targetPoint" />
            <Array as="points">
              <mxPoint x="140" y="-3900" />
              <mxPoint x="100" y="-3960" />
              <mxPoint x="60" y="-3910" />
              <mxPoint x="30" y="-3940" />
              <mxPoint x="70" y="-3990" />
            </Array>
          </mxGeometry>
        </mxCell>
        <mxCell id="ANNRg-rFrCsw3sl3Zg_w-126" value="" style="swimlane;fontStyle=0;childLayout=stackLayout;horizontal=1;startSize=30;horizontalStack=0;resizeParent=1;resizeParentMax=0;resizeLast=0;collapsible=1;marginBottom=0;whiteSpace=wrap;html=1;" vertex="1" parent="1">
          <mxGeometry x="20" y="-4050" width="160" height="143.78" as="geometry" />
        </mxCell>
        <mxCell id="ANNRg-rFrCsw3sl3Zg_w-132" value="" style="curved=1;endArrow=classic;html=1;rounded=0;" edge="1" parent="1" target="ANNRg-rFrCsw3sl3Zg_w-130">
          <mxGeometry width="50" height="50" relative="1" as="geometry">
            <mxPoint x="140" y="-3920" as="sourcePoint" />
            <mxPoint x="20" y="-4010" as="targetPoint" />
            <Array as="points" />
          </mxGeometry>
        </mxCell>
        <mxCell id="ANNRg-rFrCsw3sl3Zg_w-130" value="" style="shape=image;html=1;verticalAlign=top;verticalLabelPosition=bottom;labelBackgroundColor=#ffffff;imageAspect=0;aspect=fixed;image=https://cdn3.iconfinder.com/data/icons/corona-virus-set-1/64/a-12-128.png" vertex="1" parent="1">
          <mxGeometry x="20" y="-4010" width="160" height="113.78" as="geometry" />
        </mxCell>
      </root>
    </mxGraphModel>
  </diagram>
</mxfile>
